<?xml version="1.0" encoding="UTF-8"?>
<svg id="Layer_1" data-name="Layer 1" xmlns="http://www.w3.org/2000/svg" viewBox="0 0 193.99 50.48">
  <defs>
    <style>
      .cls-1 {
        fill: #3dbeb3;
      }

      .cls-1, .cls-2 {
        stroke-width: 0px;
      }

      .cls-2 {
        fill: #02b3a4;
      }
    </style>
  </defs>
  <g>
    <g>
      <path class="cls-1" d="M61.47,35.56c-.93,0-2.79-.09-2.79-2.1,0-1.25.67-2.12,1.25-2.74l11.12-11.49c.2-.2.35-.41.35-.61,0-.12-.09-.38-.55-.38h-11.38v-3.06h14.64c1.13,0,2.3.44,2.3,2.1,0,1.31-.58,1.89-1.16,2.5l-11.26,11.87c-.15.15-.29.29-.29.52,0,.26.15.32.35.32h12.05v3.06h-14.61Z"/>
      <path class="cls-1" d="M97.67,35.56h-13.36c-1.75,0-2.97-.73-2.97-3.06v-14.26c0-2.33,1.22-3.06,2.97-3.06h13.24v3.06h-10.91c-1.16,0-1.45.29-1.45,1.45v3.93h12.08v3.06h-12.08v4.36c0,1.16.29,1.45,1.45,1.45h11.03v3.06Z"/>
      <path class="cls-1" d="M103.2,35.56v-17.31c0-2.33,1.22-3.06,2.97-3.06h10.27c3.78,0,5.09,2.36,5.09,6.43s-1.31,6.81-4.71,6.81h-2.04v.15l7.16,6.98h-4.95l-6.58-6.61c-.44-.47-.96-1.13-.96-1.72v-.47c0-.81.58-1.4,1.72-1.4h3.96c2.12,0,2.44-1.43,2.44-3.75s-.44-3.38-2.88-3.38h-6.2c-1.16,0-1.45.29-1.45,1.45v15.86h-3.84Z"/>
      <path class="cls-1" d="M147.81,25.37c0,8.24-2.88,10.42-10.48,10.42s-10.45-2.18-10.45-10.42,2.91-10.42,10.45-10.42,10.48,2.18,10.48,10.42ZM137.33,32.73c5,0,6.52-1.54,6.52-7.36s-1.51-7.36-6.52-7.36-6.49,1.54-6.49,7.36,1.48,7.36,6.49,7.36Z"/>
      <path class="cls-1" d="M176.82,32.5h11.29c1.83,0,1.92-1.51,1.92-2.21,0-.79-.2-1.75-1.98-2.3l-8.03-2.53c-2.68-.84-3.46-2.56-3.46-5.35s1.43-4.92,4.66-4.92h11.73v3.06h-10.71c-.96,0-1.72.58-1.72,2.04,0,.9.15,1.78,1.78,2.3l7.45,2.36c2.97.93,4.25,2.18,4.25,5.38,0,3-1.22,5.24-4.37,5.24h-12.8v-3.06Z"/>
      <path class="cls-1" d="M166.72,15.19h-10.12c-1.75,0-2.97.73-2.97,3.05v17.31h3.84v-15.85c0-1.16.29-1.45,1.45-1.45h5.91c2.62,0,3.11,1.16,3.11,3.49s-.49,3.55-3.11,3.55h-4.31v3.05h6.2c4.36,0,5.18-3.11,5.18-6.6s-.81-6.54-5.18-6.54Z"/>
    </g>
    <g>
      <path class="cls-1" d="M19.73.26L2.54,6.83c-1.52.58-2.54,2.06-2.54,3.69v16.58l7.9-4.56v-9.3l13.24-5.06V0c-.48,0-.96.09-1.41.26Z"/>
      <path class="cls-1" d="M8.04,37.3l13.1-7.56v-9.12L.9,32.3c-.55.32-.9.92-.9,1.56v6.11c0,1.63,1.02,3.11,2.54,3.69l17.19,6.57c.45.17.93.26,1.41.26v-8.18l-13.1-5.01Z"/>
      <path class="cls-1" d="M41.44,18.03c.52-.3.84-.85.84-1.45v-6.06c0-1.63-1.02-3.11-2.54-3.69L22.55.26c-.45-.17-.93-.26-1.41-.26v8.18l12.97,4.96-12.97,7.49v9.12l20.3-11.71Z"/>
      <path class="cls-1" d="M22.55,50.23l17.19-6.57c1.52-.58,2.54-2.06,2.54-3.69v-16.7l-7.9,4.56v9.43l-13.24,5.06v8.18c.48,0,.96-.09,1.41-.26Z"/>
    </g>
  </g>
  <g>
    <g>
      <path class="cls-1" d="M61.47,35.56c-.93,0-2.79-.09-2.79-2.1,0-1.25.67-2.12,1.25-2.74l11.12-11.49c.2-.2.35-.41.35-.61,0-.12-.09-.38-.55-.38h-11.38v-3.06h14.64c1.13,0,2.3.44,2.3,2.1,0,1.31-.58,1.89-1.16,2.5l-11.26,11.87c-.15.15-.29.29-.29.52,0,.26.15.32.35.32h12.05v3.06h-14.61Z"/>
      <path class="cls-1" d="M97.67,35.56h-13.36c-1.75,0-2.97-.73-2.97-3.06v-14.26c0-2.33,1.22-3.06,2.97-3.06h13.24v3.06h-10.91c-1.16,0-1.45.29-1.45,1.45v3.93h12.08v3.06h-12.08v4.36c0,1.16.29,1.45,1.45,1.45h11.03v3.06Z"/>
      <path class="cls-1" d="M103.2,35.56v-17.31c0-2.33,1.22-3.06,2.97-3.06h10.27c3.78,0,5.09,2.36,5.09,6.43s-1.31,6.81-4.71,6.81h-2.04v.15l7.16,6.98h-4.95l-6.58-6.61c-.44-.47-.96-1.13-.96-1.72v-.47c0-.81.58-1.4,1.72-1.4h3.96c2.12,0,2.44-1.43,2.44-3.75s-.44-3.38-2.88-3.38h-6.2c-1.16,0-1.45.29-1.45,1.45v15.86h-3.84Z"/>
      <path class="cls-1" d="M147.81,25.37c0,8.24-2.88,10.42-10.48,10.42s-10.45-2.18-10.45-10.42,2.91-10.42,10.45-10.42,10.48,2.18,10.48,10.42ZM137.33,32.73c5,0,6.52-1.54,6.52-7.36s-1.51-7.36-6.52-7.36-6.49,1.54-6.49,7.36,1.48,7.36,6.49,7.36Z"/>
      <path class="cls-1" d="M176.82,32.5h11.29c1.83,0,1.92-1.51,1.92-2.21,0-.79-.2-1.75-1.98-2.3l-8.03-2.53c-2.68-.84-3.46-2.56-3.46-5.35s1.43-4.92,4.66-4.92h11.73v3.06h-10.71c-.96,0-1.72.58-1.72,2.04,0,.9.15,1.78,1.78,2.3l7.45,2.36c2.97.93,4.25,2.18,4.25,5.38,0,3-1.22,5.24-4.37,5.24h-12.8v-3.06Z"/>
      <path class="cls-1" d="M166.72,15.19h-10.12c-1.75,0-2.97.73-2.97,3.05v17.31h3.84v-15.85c0-1.16.29-1.45,1.45-1.45h5.91c2.62,0,3.11,1.16,3.11,3.49s-.49,3.55-3.11,3.55h-4.31v3.05h6.2c4.36,0,5.18-3.11,5.18-6.6s-.81-6.54-5.18-6.54Z"/>
    </g>
    <g>
      <path class="cls-1" d="M19.73.26L2.54,6.83c-1.52.58-2.54,2.06-2.54,3.69v16.58l7.9-4.56v-9.3l13.24-5.06V0c-.48,0-.96.09-1.41.26Z"/>
      <path class="cls-1" d="M8.04,37.3l13.1-7.56v-9.12L.9,32.3c-.55.32-.9.92-.9,1.56v6.11c0,1.63,1.02,3.11,2.54,3.69l17.19,6.57c.45.17.93.26,1.41.26v-8.18l-13.1-5.01Z"/>
      <path class="cls-2" d="M41.44,18.03c.52-.3.84-.85.84-1.45v-6.06c0-1.63-1.02-3.11-2.54-3.69L22.55.26c-.45-.17-.93-.26-1.41-.26v8.18l12.97,4.96-12.97,7.49v9.12l20.3-11.71Z"/>
      <path class="cls-2" d="M22.55,50.23l17.19-6.57c1.52-.58,2.54-2.06,2.54-3.69v-16.7l-7.9,4.56v9.43l-13.24,5.06v8.18c.48,0,.96-.09,1.41-.26Z"/>
    </g>
  </g>
</svg>