<?xml version="1.0" encoding="UTF-8"?>
<svg id="Layer_1" data-name="Layer 1" xmlns="http://www.w3.org/2000/svg" viewBox="0 0 321.12 58.43">
  <defs>
    <style>
      .cls-1 {
        fill: #3dbeb3;
      }

      .cls-1, .cls-2 {
        stroke-width: 0px;
      }

      .cls-2 {
        fill: #02b3a4;
      }
    </style>
  </defs>
  <g>
    <g>
      <path class="cls-1" d="M6.63,53.94c-2.21,0-6.63-.21-6.63-4.97,0-2.97,1.59-5.04,2.97-6.49L29.35,15.19c.48-.48.83-.97.83-1.45,0-.28-.21-.9-1.31-.9H1.86v-7.25h34.74c2.69,0,5.46,1.04,5.46,4.97,0,3.11-1.38,4.49-2.76,5.94l-26.72,28.18c-.35.35-.69.69-.69,1.24,0,.62.34.76.83.76h28.59v7.25H6.63Z"/>
      <path class="cls-1" d="M92.54,53.94h-31.7c-4.14,0-7.04-1.73-7.04-7.25V12.85c0-5.52,2.9-7.25,7.04-7.25h31.42v7.25h-25.9c-2.76,0-3.45.69-3.45,3.45v9.32h28.66v7.25h-28.66v10.36c0,2.76.69,3.45,3.45,3.45h26.17v7.25Z"/>
      <path class="cls-1" d="M105.66,53.94V12.85c0-5.52,2.9-7.25,7.04-7.25h24.38c8.98,0,12.08,5.59,12.08,15.26s-3.11,16.16-11.19,16.16h-4.83v.35l16.99,16.57h-11.74l-15.61-15.68c-1.04-1.1-2.28-2.69-2.28-4.07v-1.1c0-1.93,1.38-3.31,4.07-3.31h9.39c5.04,0,5.8-3.38,5.8-8.91s-1.04-8.01-6.84-8.01h-14.71c-2.76,0-3.45.69-3.45,3.45v37.64h-9.12Z"/>
      <path class="cls-1" d="M280.37,46.68h26.79c4.35,0,4.56-3.59,4.56-5.25,0-1.86-.48-4.14-4.7-5.46l-19.06-6.01c-6.35-2-8.22-6.08-8.22-12.71s3.38-11.67,11.05-11.67h27.83v7.25h-25.41c-2.28,0-4.07,1.38-4.07,4.83,0,2.14.35,4.21,4.21,5.46l17.68,5.59c7.04,2.21,10.08,5.18,10.08,12.78,0,7.11-2.9,12.43-10.36,12.43h-30.39v-7.25Z"/>
      <path class="cls-1" d="M256.4,5.61h-24.02c-4.14,0-7.04,1.73-7.04,7.25v41.07h9.11V16.31c0-2.76.69-3.45,3.45-3.45h14.01c6.21,0,7.39,2.76,7.39,8.28s-1.17,8.42-7.39,8.42h-11.73v7.25h16.22c10.35,0,12.29-7.39,12.29-15.67s-1.93-15.53-12.29-15.53Z"/>
    </g>
    <g>
      <path class="cls-1" d="M185.06.3l-19.89,7.61c-1.76.67-2.94,2.39-2.94,4.27v19.19l9.14-5.28v-10.77l15.32-5.86V0c-.55,0-1.11.1-1.63.3Z"/>
      <path class="cls-1" d="M171.54,43.17l15.16-8.75v-10.56l-23.42,13.52c-.64.37-1.04,1.06-1.04,1.8v7.07c0,1.88,1.18,3.6,2.94,4.27l19.89,7.6c.52.2,1.08.3,1.63.3v-9.46l-15.16-5.79Z"/>
      <path class="cls-1" d="M210.19,20.87c.6-.34.97-.99.97-1.68v-7.01c0-1.88-1.18-3.6-2.94-4.27L188.33.3c-.52-.2-1.08-.3-1.63-.3v9.46l15.01,5.74-15.01,8.66v10.56l23.49-13.56Z"/>
      <path class="cls-1" d="M188.33,58.13l19.89-7.6c1.76-.67,2.94-2.39,2.94-4.27v-19.33l-9.14,5.28v10.91l-15.32,5.86v9.46c.55,0,1.11-.1,1.63-.3Z"/>
    </g>
  </g>
  <g>
    <g>
      <path class="cls-1" d="M6.63,53.94c-2.21,0-6.63-.21-6.63-4.97,0-2.97,1.59-5.04,2.97-6.49L29.35,15.19c.48-.48.83-.97.83-1.45,0-.28-.21-.9-1.31-.9H1.86v-7.25h34.74c2.69,0,5.46,1.04,5.46,4.97,0,3.11-1.38,4.49-2.76,5.94l-26.72,28.18c-.35.35-.69.69-.69,1.24,0,.62.34.76.83.76h28.59v7.25H6.63Z"/>
      <path class="cls-1" d="M92.54,53.94h-31.7c-4.14,0-7.04-1.73-7.04-7.25V12.85c0-5.52,2.9-7.25,7.04-7.25h31.42v7.25h-25.9c-2.76,0-3.45.69-3.45,3.45v9.32h28.66v7.25h-28.66v10.36c0,2.76.69,3.45,3.45,3.45h26.17v7.25Z"/>
      <path class="cls-1" d="M105.66,53.94V12.85c0-5.52,2.9-7.25,7.04-7.25h24.38c8.98,0,12.08,5.59,12.08,15.26s-3.11,16.16-11.19,16.16h-4.83v.35l16.99,16.57h-11.74l-15.61-15.68c-1.04-1.1-2.28-2.69-2.28-4.07v-1.1c0-1.93,1.38-3.31,4.07-3.31h9.39c5.04,0,5.8-3.38,5.8-8.91s-1.04-8.01-6.84-8.01h-14.71c-2.76,0-3.45.69-3.45,3.45v37.64h-9.12Z"/>
      <path class="cls-1" d="M280.37,46.68h26.79c4.35,0,4.56-3.59,4.56-5.25,0-1.86-.48-4.14-4.7-5.46l-19.06-6.01c-6.35-2-8.22-6.08-8.22-12.71s3.38-11.67,11.05-11.67h27.83v7.25h-25.41c-2.28,0-4.07,1.38-4.07,4.83,0,2.14.35,4.21,4.21,5.46l17.68,5.59c7.04,2.21,10.08,5.18,10.08,12.78,0,7.11-2.9,12.43-10.36,12.43h-30.39v-7.25Z"/>
      <path class="cls-1" d="M256.4,5.61h-24.02c-4.14,0-7.04,1.73-7.04,7.25v41.07h9.11V16.31c0-2.76.69-3.45,3.45-3.45h14.01c6.21,0,7.39,2.76,7.39,8.28s-1.17,8.42-7.39,8.42h-11.73v7.25h16.22c10.35,0,12.29-7.39,12.29-15.67s-1.93-15.53-12.29-15.53Z"/>
    </g>
    <g>
      <path class="cls-1" d="M185.06.3l-19.89,7.61c-1.76.67-2.94,2.39-2.94,4.27v19.19l9.14-5.28v-10.77l15.32-5.86V0c-.55,0-1.11.1-1.63.3Z"/>
      <path class="cls-1" d="M171.54,43.17l15.16-8.75v-10.56l-23.42,13.52c-.64.37-1.04,1.06-1.04,1.8v7.07c0,1.88,1.18,3.6,2.94,4.27l19.89,7.6c.52.2,1.08.3,1.63.3v-9.46l-15.16-5.79Z"/>
      <path class="cls-2" d="M210.19,20.87c.6-.34.97-.99.97-1.68v-7.01c0-1.88-1.18-3.6-2.94-4.27L188.33.3c-.52-.2-1.08-.3-1.63-.3v9.46l15.01,5.74-15.01,8.66v10.56l23.49-13.56Z"/>
      <path class="cls-2" d="M188.33,58.13l19.89-7.6c1.76-.67,2.94-2.39,2.94-4.27v-19.33l-9.14,5.28v10.91l-15.32,5.86v9.46c.55,0,1.11-.1,1.63-.3Z"/>
    </g>
  </g>
</svg>