<svg xmlns="http://www.w3.org/2000/svg" xmlns:xlink="http://www.w3.org/1999/xlink" width="450" height="480" viewBox="0 0 264 280">
  <desc>
    Avatar Maker
  </desc>
  <defs>
    <path d="M124 144.611V163h4c39.765 0 72 32.235 72 72v9H0v-9c0-39.765 32.235-72 72-72h4v-18.389c-17.237-8.189-29.628-24.924-31.695-44.73C38.48 99.058 34 94.052 34 88V74c0-5.946 4.325-10.882 10-11.834V56c0-30.928 25.072-56 56-56s56 25.072 56 56v6.166c5.675.952 10 5.888 10 11.834v14c0 6.052-4.48 11.058-10.305 11.881-2.067 19.806-14.458 36.541-31.695 44.73" id="a"/>
  </defs>
  <g fill-rule="evenodd" fill="none">
    <g transform="translate(32 36)">
      <mask id="b" fill="#fff">
        <use xlink:href="#a"/>
      </mask>
      <use fill="#D0C6AC" xlink:href="#a"/>
      <g mask="url(#b)" fill="#EDB98A">
        <path d="M-32 0h264v244H-32z"/>
      </g>
      <path d="M156 79v23c0 30.928-25.072 56-56 56s-56-25.072-56-56V79v15c0 30.928 25.072 56 56 56s56-25.072 56-56z" fill-opacity=".1" fill="#000" mask="url(#b)"/>
    </g>
    <g transform="translate(0 170)">
      <defs>
        <path d="M108 13.07c-17.919 2.006-31.72 7.482-31.996 21.575C50.146 45.568 32 71.165 32 100.999V110h200v-9c0-29.835-18.146-55.432-44.004-66.355-.276-14.093-14.077-19.57-31.996-21.574V32c0 13.255-10.745 24-24 24s-24-10.745-24-24z" id="c"/>
      </defs>
      <mask id="d" fill="#fff">
        <use xlink:href="#c"/>
      </mask>
      <use fill="#B7C1DB" xlink:href="#c"/>
      <g mask="url(#d)" fill="#bc3af8">
        <path d="M0 0h264v110H0z"/>
      </g>
      <path d="M102 61.74V110h-7V58.15a65 65 0 0 0 7 3.59m67-3.59V98.5a3.5 3.5 0 1 1-7 0V61.74a65 65 0 0 0 7-3.59" fill="#F4F4F4" mask="url(#d)"/>
      <path d="M90.96 12.724C75.91 15.571 65.5 21.243 65.5 32.308 65.5 52.02 98.538 68 132 68s66.5-15.98 66.5-35.692c0-11.065-10.41-16.737-25.46-19.584 9.085 3.35 14.96 8.982 14.96 18.353C188 51.469 160.179 68 132 68S76 51.469 76 31.077c0-9.37 5.875-15.003 14.96-18.353" fill-opacity=".16" fill="#000" mask="url(#d)"/>
    </g>
    <g fill="#000">
      <g transform="translate(78 134)">
        <defs>
          <path d="M35.118 15.128C36.176 24.62 44.226 32 54 32c9.804 0 17.874-7.426 18.892-16.96.082-.767-.775-2.04-1.85-2.04H37.088c-1.08 0-2.075 1.178-1.97 2.128" id="e"/>
        </defs>
        <mask id="f" fill="#fff">
          <use xlink:href="#e"/>
        </mask>
        <use fill-opacity=".7" xlink:href="#e"/>
        <rect fill="#FFF" mask="url(#f)" x="39" y="2" width="31" height="16" rx="5"/>
        <g mask="url(#f)" fill="#FF4F6D">
          <g transform="translate(38 24)">
            <circle cx="11" cy="11" r="11"/>
            <circle cx="21" cy="11" r="11"/>
          </g>
        </g>
      </g>
      <path d="M120 130c0 4.418 5.373 8 12 8s12-3.582 12-8" fill-opacity=".16"/>
      <g transform="translate(76 90)" fill-opacity=".6">
        <circle cx="30" cy="22" r="6"/>
        <circle cx="82" cy="22" r="6"/>
      </g>
      <path d="M102.548 88.148c-5.807.268-15.196 4.488-14.954 10.344.008.192.29.277.427.128 2.755-2.96 22.316-5.949 29.205-4.364.63.145 1.11-.477.71-.927-3.421-3.848-10.186-5.426-15.389-5.18m59.905-.001c5.807.268 15.196 4.488 14.954 10.344-.008.192-.29.277-.427.128-2.755-2.96-22.316-5.949-29.205-4.364-.63.145-1.11-.477-.71-.927 3.421-3.848 10.186-5.426 15.389-5.18" fill-opacity=".6"/>
    </g>
    <defs>
      <path id="g" d="M0 0h264v280H0z"/>
      <path d="M180.15 39.92c-2.76-2.82-5.964-5.213-9.08-7.613-.688-.53-1.387-1.046-2.06-1.595-.152-.125-1.718-1.246-1.905-1.659-.451-.993-.19-.22-.128-1.404.079-1.498 3.134-5.73.854-6.7-1.003-.427-2.791.709-3.753 1.084a60 60 0 0 1-5.731 1.9c.932-1.857 2.708-5.574-.631-4.579-2.602.775-5.026 2.768-7.64 3.705.865-1.417 4.324-5.811 1.198-6.057-.972-.076-3.803 1.748-4.85 2.138-3.137 1.165-6.34 1.92-9.634 2.513-11.198 2.018-24.293 1.442-34.653 6.54-7.988 3.93-15.874 10.029-20.489 17.795-4.447 7.485-6.11 15.676-7.041 24.253-.683 6.295-.739 12.802-.42 19.119.105 2.07.338 11.61 3.345 8.721 1.498-1.44 1.487-7.253 1.864-9.22.751-3.916 1.474-7.848 2.726-11.638 2.206-6.68 4.809-13.793 10.305-18.393 3.527-2.952 6.004-6.941 9.379-9.919 1.516-1.337.36-1.198 2.797-1.022 1.638.117 3.282.162 4.923.205 3.796.099 7.598.074 11.395.087 7.647.028 15.258.136 22.898-.265 3.395-.177 6.799-.274 10.185-.588 1.891-.175 5.247-1.387 6.804-.461 1.425.847 2.905 3.615 3.928 4.748 2.418 2.679 5.3 4.724 8.126 6.92 5.895 4.58 8.87 10.332 10.66 17.488 1.784 7.13 1.284 13.745 3.491 20.762.389 1.233 1.416 3.36 2.682 1.454.235-.354.175-2.3.175-3.42 0-4.52 1.144-7.91 1.13-12.46-.056-13.832-.504-31.868-10.85-42.439" id="k"/>
    </defs>
    <mask id="h" fill="#fff">
      <use xlink:href="#g"/>
    </mask>
    <g mask="url(#h)">
      <g transform="translate(-1)">
        <g transform="translate(49 72)">
          <defs>
            <path d="M101.428 98.169c-2.513 2.294-5.19 3.325-8.575 2.604-.582-.124-2.957-4.538-8.853-4.538-5.897 0-8.27 4.414-8.853 4.538-3.385.721-6.062-.31-8.576-2.604-4.725-4.313-8.654-10.26-6.293-16.75 1.23-3.382 3.232-7.095 6.873-8.173 3.887-1.15 9.346-.002 13.264-.788 1.27-.254 2.656-.707 3.585-1.458.929.75 2.316 1.204 3.585 1.458 3.918.786 9.376-.362 13.264.788 3.64 1.078 5.642 4.79 6.873 8.173 2.361 6.49-1.568 12.437-6.294 16.75M140.081 26c-3.41 8.4-2.093 18.858-2.724 27.676-.513 7.167-2.02 17.91-8.384 22.539-3.255 2.367-9.179 6.345-13.431 5.235-2.927-.764-3.24-9.16-7.087-12.303-4.363-3.565-9.812-5.131-15.306-4.89-2.37.105-7.165.08-9.15 1.903-1.983-1.823-6.777-1.798-9.148-1.902-5.494-.242-10.943 1.324-15.306 4.889-3.847 3.143-4.16 11.54-7.087 12.303-4.252 1.11-10.176-2.868-13.431-5.235-6.365-4.63-7.87-15.372-8.384-22.54-.63-8.817.686-19.275-2.724-27.675-1.66 0-.565 16.129-.565 16.129v20.356c.032 15.288 9.581 38.17 30.754 46.908C63.286 111.53 75.015 115 84 115s20.714-3.14 25.892-5.277c21.173-8.737 30.722-31.95 30.754-47.238V42.13S141.74 26 140.081 26" id="i"/>
          </defs>
          <mask id="j" fill="#fff">
            <use xlink:href="#i"/>
          </mask>
          <use fill="#4a312c" xlink:href="#i"/>
          <g mask="url(#j)" fill="#2C1B18">
            <path d="M-32 0h264v244H-32z"/>
          </g>
        </g>
        <mask id="l" fill="#fff">
          <use xlink:href="#k"/>
        </mask>
        <use fill="#1F3140" xlink:href="#k"/>
        <g mask="url(#l)" fill="#4A312C">
          <path d="M0 0h264v280H0z"/>
        </g>
      </g>
    </g>
  </g>
</svg>
