<?xml version="1.0" encoding="utf-8"?>
<svg viewBox="138.021 134.919 782.119 765.081" xmlns="http://www.w3.org/2000/svg">
  <g transform="matrix(0.9999999999999999, 0, 0, 0.9999999999999999, -1.0000029802324661, -1.0000029802322388)">
    <g>
      <path opacity="1.000000" stroke="none" d="M 501 901 C 276 901 360.191 901 135.691 901 C 135.691 559.667 137.77 477.252 137.77 135.919 C 479.103 135.919 579.807 135.919 921.14 135.919 C 921.14 477.253 921.14 559.667 921.14 901 C 804.64 901 551.649 901 551.649 901 M 359.837 638.784 C 360.224 636.935 360.944 635.087 360.948 633.238 C 361.018 600.275 361.002 567.313 361.002 534.35 C 361.002 491.399 361.022 448.447 360.917 405.496 C 360.912 403.665 359.736 401.836 358.911 399.203 C 359.415 396.325 357.485 396.449 355.575 396.449 C 348.416 396.445 341.257 396.397 334.098 396.387 C 325.825 396.374 317.552 396.384 309.324 396.384 C 309.324 479.211 309.324 561.518 309.324 643.717 C 325.997 643.717 342.255 643.717 358.596 643.717 C 358.773 641.932 358.919 640.463 359.837 638.784 M 288.168 361.115 C 288.467 360.975 288.766 360.834 289.819 360.358 C 321.978 360.499 354.148 360.137 386.292 360.907 C 426.9 361.879 458.834 394.945 458.973 435.625 C 459.165 491.621 459.095 547.619 458.98 603.616 C 458.935 626.009 450.661 645.107 434.449 660.544 C 420.079 674.227 402.465 679.859 382.938 679.882 C 335.774 679.937 288.609 679.85 241.445 679.821 C 238.02 679.819 234.594 679.821 230.563 679.821 C 231.737 681.949 232.532 683.735 233.624 685.315 C 242.52 698.181 250.88 711.471 260.512 723.764 C 294.298 766.888 336.655 799.419 386.084 822.702 C 462.442 858.669 541.554 865.406 622.458 841.647 C 710.287 815.854 777.882 763.102 824.268 683.952 C 849.399 641.071 863.16 594.478 867.271 544.99 C 870.958 500.6 866.104 457.237 851.981 414.929 C 825.821 336.568 777.807 274.877 708.34 230.712 C 640.201 187.392 565.605 170.096 485.013 180.823 C 430.827 188.036 381.652 207.883 336.94 239.017 C 277.619 280.325 235.07 334.903 209.488 402.45 C 198.396 431.736 191.477 462.114 189.625 493.525 C 187.617 527.577 189.352 561.307 197.669 594.647 C 213.207 594.647 228.648 594.647 244.499 594.647 C 243.751 590.675 243.138 586.932 242.333 583.23 C 233.7 543.54 232.196 503.688 239.983 463.705 C 246.954 427.91 259.679 394.395 280.207 364.02 C 282.293 360.934 284.431 359.643 288.168 361.115 Z" style="paint-order: fill; fill-rule: nonzero; fill: rgba(255, 255, 255, 0);"/>
      <path opacity="1.000000" stroke="none" d=" M730.045532,729.120361 C708.183533,749.617126 683.909912,766.651611 656.975281,779.825195 C612.466003,801.594299 565.446045,811.895996 515.914124,809.870056 C472.791748,808.106201 432.399963,796.067688 394.179871,776.296509 C369.023041,763.282898 346.345642,746.757751 325.266205,727.947327 C324.344604,727.124939 323.595306,726.109375 322.283264,724.645569 C338.494873,724.645569 353.923401,724.567932 369.350830,724.665649 C387.701996,724.781860 406.056213,724.655334 423.657867,718.598694 C464.894012,704.409485 490.895782,675.594727 502.775269,634.081604 C505.624054,624.126404 507.158722,613.452576 507.215363,603.097900 C507.528809,545.778931 508.436279,488.419464 506.724426,431.146088 C505.160492,378.821411 463.582733,323.398010 398.803619,317.227203 C373.357025,314.803192 347.544708,316.218140 321.898895,315.887146 C320.907349,315.874329 319.915466,315.885529 317.675232,315.885529 C319.750580,313.638000 321.190857,311.981201 322.731628,310.423828 C358.238037,274.534637 400.534760,249.928268 448.584412,235.011841 C482.007111,224.636169 516.274231,220.436356 551.140869,223.309952 C601.789795,227.484283 648.490417,243.809250 690.086121,272.968872 C750.287109,315.171326 792.334167,371.119598 812.293091,442.359741 C829.516663,503.836273 824.753540,564.395264 801.484131,623.624634 C786.567810,661.592346 764.128784,694.676025 735.105835,723.891663 C733.054626,722.955750 731.665161,721.980896 730.181641,720.584229 C730.137634,718.439697 730.187683,716.716980 730.607483,714.867065 C731.315247,713.863342 731.943054,712.988342 731.947815,712.109863 C732.016907,699.376892 732.004700,686.643494 732.007141,673.910156 C732.009033,663.758789 732.002991,653.607361 732.002747,643.455994 C732.002075,613.334656 731.997864,583.213257 732.007385,553.091919 C732.008850,548.445801 735.149048,544.043152 738.875305,544.060913 C755.323242,544.139465 771.770325,544.461792 788.217957,544.486328 C789.541992,544.488281 791.805481,543.080444 792.008301,542.017822 C792.507935,539.400024 792.091797,536.600525 791.990112,533.876099 C791.570312,522.639282 791.144409,511.402588 790.641663,500.169434 C790.623535,499.762909 789.775757,499.393524 789.176270,498.598480 C786.696899,497.886169 784.355957,497.316650 782.015076,497.317139 C721.517334,497.330048 661.019531,497.402496 600.521790,497.463928 C597.425720,497.467072 594.329651,497.464294 590.721436,497.464294 C590.721436,436.597168 590.721436,376.381622 590.721436,316.269501 C573.913940,316.269501 557.655823,316.269501 541.035889,316.269501 C541.035889,318.414795 541.036743,320.218719 541.035828,322.022644 C541.025391,341.522095 541.009644,361.021576 541.005127,380.521027 C540.992615,434.350464 540.984863,488.179901 540.741516,542.238342 C541.237305,543.284668 542.062561,544.867798 542.680115,544.790466 C545.827454,544.396790 548.921143,543.573608 552.485107,542.773438 C590.285339,542.591980 627.633911,542.535217 664.982544,542.497925 C665.964111,542.496948 666.945984,542.707825 668.192139,543.126465 C669.418274,543.621338 670.373840,543.929993 671.342529,543.978516 C677.824829,544.303650 679.289673,546.811401 677.422852,553.074463 C676.774780,555.248901 677.595032,557.898315 677.909790,560.309204 C678.118958,561.911438 678.920471,563.471497 678.941467,565.057251 C679.049927,573.218750 679.155762,581.387573 678.902283,589.542664 C678.813843,592.386902 676.302551,595.915894 677.317139,597.886780 C679.987000,603.072754 677.992004,607.958435 677.996887,612.952942 C678.007263,623.533813 678.128723,634.116760 677.963562,644.695068 C677.800232,655.152710 677.226868,665.603943 677.052979,676.061646 C676.950806,682.202759 677.198730,688.354126 677.440125,694.494995 C677.584717,698.175781 678.102356,701.840759 678.297363,705.521057 C678.437134,708.157654 678.363770,710.808838 678.305786,713.451721 C678.242554,716.332764 677.946655,719.216675 678.044373,722.089355 C678.081543,723.180359 678.871094,725.136414 679.422424,725.174255 C682.913208,725.414185 685.897156,729.278320 689.937500,726.388184 C691.172913,725.504517 693.498047,726.006287 695.312805,726.097534 C699.941284,726.330444 704.582275,727.091736 709.182312,726.875916 C713.146301,726.690002 717.060730,725.448364 721.354675,724.530029 C722.476501,724.434448 723.240662,724.482361 724.156128,724.846191 C725.813354,727.071228 730.475037,724.405518 730.045532,729.120361 M679.514160,362.502075 C679.729919,366.018402 679.945740,369.534760 680.444946,373.944916 C680.346497,390.280487 680.248047,406.616058 679.517151,423.506134 C679.723145,427.684662 679.929138,431.863220 680.402222,436.940704 C680.402222,445.212250 680.402222,453.483826 680.402222,461.834717 C697.371277,461.834717 713.446472,461.834717 729.709839,461.834717 C729.709839,413.070740 729.709839,364.588043 729.709839,316.249023 C713.143738,316.249023 697.073242,316.249023 681.027100,316.249023 C680.730591,318.013367 680.487061,319.462372 679.583618,321.457001 C679.771057,325.985901 679.958557,330.514801 680.412903,335.942566 C680.321594,344.613617 680.230225,353.284668 679.514160,362.502075 M541.040710,720.340149 C540.401001,723.930420 542.386780,724.353271 545.357849,724.332031 C558.674316,724.236877 571.992065,724.336304 585.309387,724.322205 C587.066589,724.320374 588.823608,724.069641 590.562317,723.935669 C590.562317,674.766602 590.562317,626.071350 590.562317,577.063660 C574.047607,577.063660 557.810425,577.063660 541.039185,577.063660 C541.039185,624.576355 541.039185,671.973450 541.040710,720.340149 z" style="paint-order: fill; fill-rule: nonzero; fill: rgba(255, 255, 255, 0);"/>
      <path opacity="1.000000" stroke="none" d=" M730.352234,728.995605 C730.475037,724.405518 725.813354,727.071228 724.589111,724.764648 C727.243896,724.165710 730.503113,725.389282 730.275696,721.006042 C731.665161,721.980896 733.054626,722.955750 734.788025,723.990906 C733.640991,725.657776 732.149963,727.264282 730.352234,728.995605 z" style="paint-order: fill; fill-rule: nonzero; fill: rgba(255, 255, 255, 0);"/>
      <path opacity="1.000000" stroke="none" d=" M730.607483,714.867065 C730.208435,689.375122 730.166199,663.756042 730.153137,638.136963 C730.137756,608.019714 730.147766,577.902405 730.146729,547.785156 C730.146667,546.161133 730.146667,544.537109 730.146667,542.590515 C749.931335,542.590515 769.307068,542.590515 789.099060,542.590515 C789.099060,528.152222 789.099060,514.036743 789.206848,499.464050 C789.775757,499.393524 790.623535,499.762909 790.641663,500.169434 C791.144409,511.402588 791.570312,522.639282 791.990112,533.876099 C792.091797,536.600525 792.507935,539.400024 792.008301,542.017822 C791.805481,543.080444 789.541992,544.488281 788.217957,544.486328 C771.770325,544.461792 755.323242,544.139465 738.875305,544.060913 C735.149048,544.043152 732.008850,548.445801 732.007385,553.091919 C731.997864,583.213257 732.002075,613.334656 732.002747,643.455994 C732.002991,653.607361 732.009033,663.758789 732.007141,673.910156 C732.004700,686.643494 732.016907,699.376892 731.947815,712.109863 C731.943054,712.988342 731.315247,713.863342 730.607483,714.867065 z" style="paint-order: fill; fill-rule: nonzero; fill: rgba(255, 255, 255, 0);"/>
      <path opacity="1.000000" stroke="none" d=" M668.192139,543.126465 C672.040405,542.819946 676.153137,542.819946 680.775879,542.819946 C680.775879,603.327820 680.775879,663.607788 680.775879,724.382507 C694.226074,724.382507 707.163452,724.382507 720.548950,724.527954 C717.060730,725.448364 713.146301,726.690002 709.182312,726.875916 C704.582275,727.091736 699.941284,726.330444 695.312805,726.097534 C693.498047,726.006287 691.172913,725.504517 689.937500,726.388184 C685.897156,729.278320 682.913208,725.414185 679.422424,725.174255 C678.871094,725.136414 678.081543,723.180359 678.044373,722.089355 C677.946655,719.216675 678.242554,716.332764 678.305786,713.451721 C678.363770,710.808838 678.437134,708.157654 678.297363,705.521057 C678.102356,701.840759 677.584717,698.175781 677.440125,694.494995 C677.198730,688.354126 676.950806,682.202759 677.052979,676.061646 C677.226868,665.603943 677.800232,655.152710 677.963562,644.695068 C678.128723,634.116760 678.007263,623.533813 677.996887,612.952942 C677.992004,607.958435 679.987000,603.072754 677.317139,597.886780 C676.302551,595.915894 678.813843,592.386902 678.902283,589.542664 C679.155762,581.387573 679.049927,573.218750 678.941467,565.057251 C678.920471,563.471497 678.118958,561.911438 677.909790,560.309204 C677.595032,557.898315 676.774780,555.248901 677.422852,553.074463 C679.289673,546.811401 677.824829,544.303650 671.342529,543.978516 C670.373840,543.929993 669.418274,543.621338 668.192139,543.126465 z" style="paint-order: fill; fill-rule: nonzero; fill: rgba(255, 255, 255, 0);"/>
      <path opacity="1.000000" stroke="none" d=" M540.741516,542.238342 C544.405151,542.230164 547.835022,542.451050 551.649292,542.786316 C548.921143,543.573608 545.827454,544.396790 542.680115,544.790466 C542.062561,544.867798 541.237305,543.284668 540.741516,542.238342 z" style="paint-order: fill; fill-rule: nonzero; fill: rgba(255, 255, 255, 0);"/>
      <path opacity="1.000000" stroke="none" d=" M679.913574,321.184204 C680.283936,325.317383 680.324341,329.723358 680.255371,334.586517 C679.958557,330.514801 679.771057,325.985901 679.913574,321.184204 z" style="paint-order: fill; fill-rule: nonzero; fill: rgba(255, 255, 255, 0);"/>
      <path opacity="1.000000" stroke="none" d=" M679.833374,423.228882 C680.217651,427.011230 680.285706,431.070862 680.244385,435.586121 C679.929138,431.863220 679.723145,427.684662 679.833374,423.228882 z" style="paint-order: fill; fill-rule: nonzero; fill: rgba(255, 255, 255, 0);"/>
      <path opacity="1.000000" stroke="none" d=" M679.826538,362.228882 C680.218811,365.352936 680.298767,368.750122 680.270142,372.599213 C679.945740,369.534760 679.729919,366.018402 679.826538,362.228882 z" style="paint-order: fill; fill-rule: nonzero; fill: rgba(255, 255, 255, 0);"/>
    </g>
    <g>
      <path opacity="1.000000" stroke="none" d=" M359.450745,638.888916 C358.998810,618.370117 358.879120,597.745972 358.877441,577.121826 C358.872620,518.391235 358.915955,459.660675 359.022705,400.468262 C359.735718,401.836304 360.912384,403.664825 360.916870,405.496216 C361.022034,448.447296 361.001770,491.398712 361.002106,534.350037 C361.002350,567.312683 361.017914,600.275391 360.948029,633.237854 C360.944122,635.087219 360.223724,636.934998 359.450745,638.888916 z" style="fill: rgb(255, 255, 255);"/>
      <path opacity="1.000000" stroke="none" d=" M288.056122,360.930115 C288.128479,360.669098 288.312256,360.593048 288.780975,360.605499 C288.766449,360.834381 288.466980,360.974762 288.056122,360.930115 z" style="fill: rgb(255, 255, 255);"/>
      <path opacity="1.000000" stroke="none" d=" M287.944733,360.745117 C284.431427,359.643311 282.292542,360.933563 280.206909,364.019684 C259.678864,394.394775 246.953888,427.909973 239.982559,463.705383 C232.195786,503.687988 233.700333,543.540161 242.332535,583.230286 C243.137573,586.931763 243.750549,590.675049 244.499405,594.646729 C228.647888,594.646729 213.206604,594.646729 197.669098,594.646729 C189.352203,561.306641 187.617111,527.577393 189.624939,493.524841 C191.477051,462.113617 198.396484,431.736389 209.488220,402.449646 C235.069962,334.903168 277.618896,280.325165 336.940308,239.017395 C381.651733,207.883148 430.826630,188.035614 485.013367,180.823181 C565.604614,170.096207 640.200867,187.391556 708.340271,230.712112 C777.807434,274.876831 825.821289,336.567963 851.980530,414.929077 C866.104309,457.237366 870.958130,500.600281 867.270630,544.990051 C863.159668,594.478210 849.398987,641.071228 824.268433,683.952148 C777.882202,763.102356 710.287231,815.853516 622.457520,841.646667 C541.553528,865.406006 462.441711,858.668518 386.083893,822.701721 C336.654755,799.419250 294.297852,766.887573 260.511658,723.763916 C250.880447,711.470886 242.519852,698.180725 233.624435,685.314819 C232.532059,683.734924 231.737167,681.949463 230.562637,679.821045 C234.593689,679.821045 238.019547,679.819275 241.445419,679.821350 C288.609467,679.850342 335.773560,679.937012 382.937500,679.881958 C402.465118,679.859192 420.079224,674.226990 434.448975,660.544189 C450.661346,645.106812 458.934692,626.009033 458.980438,603.615540 C459.094757,547.618774 459.164673,491.621094 458.972992,435.624725 C458.833740,394.944794 426.899994,361.879364 386.291534,360.906952 C354.148132,360.137268 321.977692,360.498688 289.157654,360.437408 C288.312256,360.593048 288.128479,360.669098 287.944733,360.745117 M730.658936,728.870789 C732.149963,727.264282 733.640991,725.657776 735.767639,723.852783 C764.128784,694.676025 786.567810,661.592346 801.484131,623.624634 C824.753540,564.395264 829.516663,503.836273 812.293091,442.359741 C792.334167,371.119598 750.287109,315.171326 690.086121,272.968872 C648.490417,243.809250 601.789795,227.484283 551.140869,223.309952 C516.274231,220.436356 482.007111,224.636169 448.584412,235.011841 C400.534760,249.928268 358.238037,274.534637 322.731628,310.423828 C321.190857,311.981201 319.750580,313.638000 317.675232,315.885529 C319.915466,315.885529 320.907349,315.874329 321.898895,315.887146 C347.544708,316.218140 373.357025,314.803192 398.803619,317.227203 C463.582733,323.398010 505.160492,378.821411 506.724426,431.146088 C508.436279,488.419464 507.528809,545.778931 507.215363,603.097900 C507.158722,613.452576 505.624054,624.126404 502.775269,634.081604 C490.895782,675.594727 464.894012,704.409485 423.657867,718.598694 C406.056213,724.655334 387.701996,724.781860 369.350830,724.665649 C353.923401,724.567932 338.494873,724.645569 322.283264,724.645569 C323.595306,726.109375 324.344604,727.124939 325.266205,727.947327 C346.345642,746.757751 369.023041,763.282898 394.179871,776.296509 C432.399963,796.067688 472.791748,808.106201 515.914124,809.870056 C565.446045,811.895996 612.466003,801.594299 656.975281,779.825195 C683.909912,766.651611 708.183533,749.617126 730.658936,728.870789 z" style="fill: rgb(255, 255, 255);"/>
      <path opacity="1.000000" stroke="none" d=" M359.064636,638.994263 C358.918915,640.463196 358.773193,641.932190 358.596161,643.716919 C342.255402,643.716919 325.996674,643.716919 309.324219,643.716919 C309.324219,561.517944 309.324219,479.210846 309.324219,396.383820 C317.551636,396.383820 325.824921,396.374390 334.098206,396.386688 C341.257080,396.397339 348.415863,396.445221 355.574707,396.448578 C357.485229,396.449463 359.414520,396.324677 358.925690,400.066528 C358.915955,459.660675 358.872620,518.391235 358.877441,577.121826 C358.879120,597.745972 358.998810,618.370117 359.064636,638.994263 z" style="fill: rgb(255, 255, 255);"/>
      <path opacity="1.000000" stroke="none" d=" M730.181641,720.584229 C730.503113,725.389282 727.243896,724.165710 724.437866,724.448669 C723.240662,724.482361 722.476501,724.434448 720.906555,724.384521 C707.163452,724.382507 694.226074,724.382507 680.775879,724.382507 C680.775879,663.607788 680.775879,603.327820 680.775879,542.819946 C676.153137,542.819946 672.040405,542.819946 667.927673,542.819946 C666.945984,542.707825 665.964111,542.496948 664.982544,542.497925 C627.633911,542.535217 590.285339,542.591980 552.100830,542.658997 C547.835022,542.451050 544.405151,542.230164 540.975220,542.009338 C540.984863,488.179901 540.992615,434.350464 541.005127,380.521027 C541.009644,361.021576 541.025391,341.522095 541.035828,322.022644 C541.036743,320.218719 541.035889,318.414795 541.035889,316.269501 C557.655823,316.269501 573.913940,316.269501 590.721436,316.269501 C590.721436,376.381622 590.721436,436.597168 590.721436,497.464294 C594.329651,497.464294 597.425720,497.467072 600.521790,497.463928 C661.019531,497.402496 721.517334,497.330048 782.015076,497.317139 C784.355957,497.316650 786.696899,497.886169 789.068481,499.055664 C789.099060,514.036743 789.099060,528.152222 789.099060,542.590515 C769.307068,542.590515 749.931335,542.590515 730.146667,542.590515 C730.146667,544.537109 730.146667,546.161133 730.146729,547.785156 C730.147766,577.902405 730.137756,608.019714 730.153137,638.136963 C730.166199,663.756042 730.208435,689.375122 730.237732,714.994202 C730.187683,716.716980 730.137634,718.439697 730.181641,720.584229 z" style="fill: rgb(255, 255, 255);"/>
      <path opacity="1.000000" stroke="none" d=" M541.039917,719.855347 C541.039185,671.973450 541.039185,624.576355 541.039185,577.063660 C557.810425,577.063660 574.047607,577.063660 590.562317,577.063660 C590.562317,626.071350 590.562317,674.766602 590.562317,723.935669 C588.823608,724.069641 587.066589,724.320374 585.309387,724.322205 C571.992065,724.336304 558.674316,724.236877 545.357849,724.332031 C542.386780,724.353271 540.401001,723.930420 541.039917,719.855347 z" style="fill: rgb(255, 255, 255);"/>
      <path opacity="1.000000" stroke="none" d=" M680.243530,320.911407 C680.487061,319.462372 680.730591,318.013367 681.027100,316.249023 C697.073242,316.249023 713.143738,316.249023 729.709839,316.249023 C729.709839,364.588043 729.709839,413.070740 729.709839,461.834717 C713.446472,461.834717 697.371277,461.834717 680.402222,461.834717 C680.402222,453.483826 680.402222,445.212250 680.377991,436.035583 C680.285706,431.070862 680.217651,427.011230 680.149597,422.951630 C680.248047,406.616058 680.346497,390.280487 680.411865,373.046143 C680.298767,368.750122 680.218811,365.352936 680.138855,361.955719 C680.230225,353.284668 680.321594,344.613617 680.388794,335.035950 C680.324341,329.723358 680.283936,325.317383 680.243530,320.911407 z" style="fill: rgb(255, 255, 255);"/>
    </g>
  </g>
</svg>