<svg version="1.2" xmlns="http://www.w3.org/2000/svg" viewBox="0 0 2286 2358" width="2286" height="2358">
	<title>404</title>
	<style>
		.s0 { fill: #425f72 } 
		.s1 { fill: #7c9bb5 } 
		.s2 { fill: currentColor } 
		.s3 { fill: #4d6b84 } 
	</style>
	<g id="Layer1">
		<g id="g1">
			<g id="g2">
				<path class="s0" d="m1621.2 692.6h241.2l-241.2-241.2z"/>
				<path class="s1" d="m1621.2 692.6h241.2l-241.2-241.2z"/>
				<path fill-rule="evenodd" class="s0" d="m1862.4 2264.6h-1308.9c-11.4 0-20.6-9.3-20.6-20.7v-104.6c0-9.4 6.3-17.6 15.4-19.9l1308.9-342.7c6.2-1.7 12.8-0.3 17.8 3.6 5.1 3.9 8.1 9.9 8.1 16.3v447.3c0 11.4-9.3 20.7-20.7 20.7zm-1288.3-41.3h1267.7v-399.9l-1267.7 331.9z"/>
				<path fill-rule="evenodd" class="s0" d="m1883.1 693.2v980.2c0 9.4-6.4 17.6-15.5 20l-1308.9 342.7q-2.6 0.6-5.2 0.6c-4.5 0-9-1.4-12.6-4.3-5.1-3.9-8-9.9-8-16.3v-1060.3c0-11.4 9.2-20.7 20.6-20.7 11.4 0 20.6 9.3 20.6 20.7v1033.6l1267.7-331.9v-944.2h-220.6c-11.4 0-20.6-9.3-20.6-20.7v-220.5h-539.5c-11.4 0-20.7-9.3-20.7-20.7 0-11.4 9.3-20.6 20.7-20.6h560.1q0.2 0 0.5 0 0.5 0 1.1 0.1 0.4 0 0.7 0 0.8 0.1 1.5 0.3 0.2 0 0.5 0 0.7 0.2 1.5 0.4 0.3 0.1 0.5 0.2 0.7 0.2 1.3 0.4 0.2 0.1 0.5 0.2 1.7 0.7 3.2 1.8 0.2 0.1 0.4 0.2 0.6 0.4 1.2 0.9 0.1 0.1 0.3 0.3 0.7 0.6 1.4 1.2l241.2 241.2q0.7 0.7 1.3 1.5 0.1 0.1 0.2 0.2 0.5 0.7 1 1.4 0.1 0.1 0.1 0.2 1.1 1.6 1.9 3.4 0 0.1 0 0.1 0.4 0.9 0.6 1.8 0.1 0 0.1 0.1 0.6 1.9 0.8 3.9 0 0 0 0 0.1 1.3 0.1 2.6zm-241.2-21.2h170.7l-170.7-170.8z"/>
				<path class="s2" d="m727.8 310.1c-2.5 0-5.1-0.6-7.5-1.7-73.4-34.9-158.5-36.9-233.5-5.4-8.9 3.8-19.1-0.4-22.8-9.3-3.8-8.9 0.4-19.1 9.3-22.9 84.1-35.3 179.6-33.1 262 6 8.7 4.2 12.4 14.6 8.3 23.3-3 6.3-9.3 10-15.8 10z"/>
				<path fill-rule="evenodd" class="s2" d="m1001.2 566.4c0 52.5-9.9 103.5-29.6 151.9-20.3 50.1-50.1 95-88.6 133.5-38.5 38.5-83.5 68.4-133.5 88.7-48.4 19.6-99.5 29.5-151.9 29.5-52.4 0-103.5-9.9-151.9-29.5-29.7-12.1-57.5-27.5-83.3-46.1l-49.2 49.2q0 0 0 0l-160 160c-12.8 12.8-29.6 19.2-46.4 19.2-16.8 0-33.6-6.4-46.3-19.2-12.4-12.4-19.3-28.9-19.3-46.4 0-17.5 6.9-34 19.3-46.3l209.1-209.2c-18.6-25.8-34-53.7-46-83.4-19.6-48.4-29.6-99.4-29.6-151.9 0-52.4 10-103.5 29.6-151.8 20.3-50.1 50.1-95 88.6-133.5 38.5-38.6 83.5-68.4 133.5-88.7 48.4-19.6 99.5-29.5 151.9-29.5 52.4 0 103.5 9.9 151.9 29.5 50 20.3 95 50.1 133.5 88.7 38.5 38.5 68.3 83.4 88.6 133.5 19.7 48.3 29.6 99.4 29.6 151.8zm-726.4 366.2c-7.8-6.6-15.3-13.6-22.5-20.8-7.2-7.2-14.2-14.8-20.9-22.5l-146.3 146.2c-5.7 5.8-8.9 13.5-8.9 21.7 0 8.2 3.2 15.9 8.9 21.7 12 12 31.5 12 43.4 0zm583.5-626.9c-71.8-71.9-166.3-107.8-260.7-107.8-94.4 0-188.8 35.9-260.7 107.8-143.7 143.8-143.7 377.7 0 521.4 143.8 143.7 377.7 143.7 521.4 0 143.8-143.7 143.8-377.6 0-521.4zm-523.6 567q-11.5-10-22.4-20.9-11-10.9-20.9-22.5l-35.2 35.2c6.6 7.8 13.6 15.3 20.8 22.6 7.2 7.2 14.8 14.1 22.6 20.7z"/>
				<path class="s2" d="m1009.5 1332.6h-252.6c-6 0-11.6-3.1-14.8-8.3-3.2-5.1-3.5-11.6-0.8-17l162.4-324.8c4.3-8.6 14.8-12.1 23.4-7.8 8.7 4.3 12.2 14.8 7.8 23.5l-149.7 299.5h224.3c9.7 0 17.5 7.8 17.5 17.4 0 9.7-7.8 17.5-17.5 17.5z"/>
				<path class="s2" d="m932.6 1528.7c-9.7 0-17.5-7.9-17.5-17.5v-358.5c0-9.6 7.8-17.4 17.5-17.4 9.6 0 17.4 7.8 17.4 17.4v358.5c0 9.6-7.8 17.5-17.4 17.5z"/>
				<path class="s2" d="m1659 1332.6h-252.6c-6.1 0-11.7-3.1-14.9-8.3-3.1-5.1-3.4-11.6-0.7-17l162.4-324.8c4.3-8.6 14.8-12.1 23.4-7.8 8.6 4.3 12.1 14.8 7.8 23.5l-149.8 299.5h224.4c9.6 0 17.5 7.8 17.5 17.4 0 9.7-7.9 17.5-17.5 17.5z"/>
				<path class="s2" d="m1582 1595.3c-9.6 0-17.4-7.8-17.4-17.4v-358.5c0-9.6 7.8-17.5 17.4-17.5 9.7 0 17.5 7.9 17.5 17.5v358.5c0 9.6-7.8 17.4-17.5 17.4z"/>
				<path fill-rule="evenodd" class="s2" d="m1254.8 1528.7h-96.2c-39.5 0-71.6-32.2-71.6-71.6v-412.6c0-39.5 32.1-71.6 71.6-71.6h96.2c39.5 0 71.6 32.1 71.6 71.6v412.6c0 39.4-32.1 71.6-71.6 71.6zm-96.2-520.9c-20.2 0-36.7 16.5-36.7 36.7v412.6c0 20.2 16.5 36.6 36.7 36.6h96.2c20.2 0 36.7-16.4 36.7-36.6v-412.6c0-20.2-16.5-36.7-36.7-36.7z"/>
				<path class="s3" d="m1923.8 403.5c-5.3 0-10.6-2-14.6-6-8.1-8.1-8.1-21.1 0-29.2l90.2-90.2c8-8 21.1-8 29.2 0 8 8.1 8 21.2 0 29.2l-90.2 90.2c-4 4-9.3 6-14.6 6z"/>
				<path class="s3" d="m2228.3 830.8h-127.5c-11.4 0-20.7-9.3-20.7-20.7 0-11.4 9.3-20.6 20.7-20.6h127.5c11.4 0 20.6 9.2 20.6 20.6 0 11.4-9.2 20.7-20.6 20.7z"/>
				<path class="s3" d="m1496.6 226.6c-11.4 0-20.7-9.3-20.7-20.6v-127.6c0-11.4 9.3-20.6 20.7-20.6 11.4 0 20.6 9.2 20.6 20.6v127.6c0 11.3-9.2 20.6-20.6 20.6z"/>
				<path class="s2" d="m2056 599.4c-6.9 0-13.4-4.1-16.2-10.9-3.6-8.9 0.7-19.1 9.6-22.7l59.1-24.1c8.9-3.7 19.1 0.6 22.7 9.6 3.7 8.9-0.6 19.1-9.6 22.7l-59 24.1c-2.2 0.9-4.4 1.3-6.6 1.3z"/>
				<path class="s2" d="m1730.8 270.7c-2.3 0-4.6-0.5-6.8-1.4-8.9-3.7-13-14-9.3-22.9l23.6-56c3.7-8.9 13.9-13.1 22.8-9.3 8.9 3.7 13.1 13.9 9.3 22.8l-23.5 56.1c-2.8 6.6-9.3 10.7-16.1 10.7z"/>
				<path class="s0" d="m553.5 883.9c-11.4 0-20.6-9.2-20.6-20.6v-411.9c0-11.4 9.2-20.6 20.6-20.6h313.5c11.4 0 20.7 9.2 20.7 20.6 0 11.4-9.3 20.7-20.7 20.7h-292.9v391.2c0 11.4-9.2 20.6-20.6 20.6z"/>
			</g>
		</g>
	</g>
</svg>