<?xml version="1.0" encoding="UTF-8"?>
<svg id="Layer_1" data-name="Layer 1" xmlns="http://www.w3.org/2000/svg" viewBox="0 0 84.4 100.8">
  <defs>
    <style>
      .cls-1, .cls-2 {
        stroke-width: 0px;
      }
    </style>
  </defs>
  <path class="cls-1" d="M39.39.52L5.07,13.64c-3.03,1.16-5.07,4.12-5.07,7.37v33.1l15.77-9.1v-18.57l26.43-10.1V0c-.96,0-1.91.17-2.82.52Z"/>
  <path class="cls-1" d="M16.05,74.47l26.15-15.09v-18.21L1.79,64.49c-1.11.64-1.79,1.83-1.79,3.11v12.19c0,3.25,2.04,6.21,5.07,7.37l34.32,13.12c.9.34,1.86.52,2.82.52v-16.33l-26.15-10Z"/>
  <path class="cls-2" d="M82.73,36c1.03-.59,1.67-1.7,1.67-2.89v-12.1c0-3.25-2.04-6.21-5.07-7.37L45.02.52c-.9-.34-1.86-.52-2.82-.52v16.33l25.9,9.9-25.9,14.95v18.21l40.53-23.39Z"/>
  <path class="cls-2" d="M45.02,100.28l34.31-13.12c3.03-1.16,5.07-4.12,5.07-7.37v-33.35l-15.77,9.1v18.82l-26.43,10.1v16.33c.96,0,1.91-.17,2.82-.52Z"/>
</svg>